<svg xmlns="http://www.w3.org/2000/svg" width="128" height="128"><defs><linearGradient id="a" x1="91.97" x2="36.03" y1="112.45" y2="15.55" gradientUnits="userSpaceOnUse"><stop offset="0" stop-color="#ff0f80"/><stop offset="1" stop-color="#7600d1"/></linearGradient></defs><path d="M120 90.5v-53a10 10 0 0 0-5-8.66L69 2.34a10 10 0 0 0-10 0l-46 26.5a10 10 0 0 0-5 8.67v52.98a10 10 0 0 0 5 8.67l46 26.5a10 10 0 0 0 10 0l46-26.5a10 10 0 0 0 5-8.67" style="fill:url(#a)"/><path d="M38.93 85.94a29 29 0 0 0 5.82.48v2.07a2 2 0 0 1-2 2.02h-3.88a2 2 0 0 1-2.01-2.02v-3.62a3.3 3.3 0 0 0 2.05 1.07Zm3.74-43.1a22 22 0 0 0 .27 2.69h14.04a9 9 0 0 1 .57-.8 14 14 0 0 1 1.98-1.88Zm12.76 6.89a9 9 0 0 1 .52-2.3l.08-.16H43.3a21 21 0 0 0 .78 2.46Zm26.31 4.2a21 21 0 0 0 1.31-2.24h-38.1a21 21 0 0 0 1.3 2.24ZM30.44 104l8.14 4.7 5.6-17.21H37.1Zm56.84-39.07c.72-.22.83-.21 1.26-.65a1.8 1.8 0 0 0 .08-1.95c-.16-.38-.4-.47-1.7-.32l-1.9.26ZM84.7 47.27H72.64v2.46h11.28a21 21 0 0 0 .78-2.46M40.72 64.93l2.26-2.66-1.9-.26c-1.3-.15-1.54-.06-1.7.32a1.8 1.8 0 0 0 .08 1.95c.43.44.54.43 1.26.65M62.8 40.48q.77-.54 1.65-1.1a11 11 0 0 0 1.28-.95H42.96a22 22 0 0 0-.3 2.9H61.6zm22.54 2.37H66.24l-.36.23q-1.2.8-2.35 1.7a11 11 0 0 0-.81.75h22.34a22 22 0 0 0 .27-2.68m-14.91-3.16a13 13 0 0 1-1.92 1.63h16.83a22 22 0 0 0-.29-2.9H71.38a8 8 0 0 1-.96 1.27m-3.18-3.04a4 4 0 0 0 .5-1.92 3.5 3.5 0 0 0-1-2.67 3.5 3.5 0 0 0-2.54-.96 3 3 0 0 0-1.76.49 4 4 0 0 0-1.16 1.28 6 6 0 0 0-.62 1.74 10 10 0 0 0-.19 1.9H55.9a11 11 0 0 1 .47-3.75 9 9 0 0 1 1.61-3.02 7 7 0 0 1 2.7-2.02 9 9 0 0 1 3.76-.72 9 9 0 0 1 3.07.5 8 8 0 0 1 2.57 1.45 7 7 0 0 1 1.77 2.32 7 7 0 0 1 .65 3.1 8 8 0 0 1-.45 2.75h12.73a21.35 21.35 0 0 0-41.56 0h23.7q.18-.23.32-.47m10.14 48.94c-.55.02-1.05 1.16-2.53 1.27-.58.04-2.72.05-5.1.05v-2.18a.24.24 0 1 0-.48 0v2.18L64 86.88h-1.49l-2.02.02h-1.76v-2.17a.24.24 0 1 0-.48 0v2.18c-2.38 0-4.52 0-5.1-.05-1.48-.11-1.98-1.24-2.53-1.27-9.9-.37-9.16-.24-11.52-.67l-.17-.03c-1.57-.35-1.75-1.31-2.1-3.09l-.13-.6a71 71 0 0 1-.67-7.71s.13-3.3.76-4.26l.11-.16.05-.05.04-.05a3 3 0 0 1 .36-.36l.05-.04.05-.04.1-.07.05-.05.04-.03.46-.32.15-.1.13-.1.12-.08.1-.07.12-.09.09-.07.13-.1.07-.06.2-.17c.2-.2.9-1.05 1.85-2.2l2.26-2.65.04-.05.09-.1.08-.1c2.31-2.66 4.86-5.37 5.83-5.49a50 50 0 0 1 6.88-.36 196 196 0 0 1 4.83 0h.5l2.43.04 2.43-.03h5.34a50 50 0 0 1 6.88.35c.96.12 3.5 2.83 5.82 5.49l.08.1.1.1.03.05 2.26 2.66c.96 1.14 1.66 1.99 1.86 2.19l.19.17.07.06.13.1.1.07.12.1.1.06.12.09.13.09.15.1.14.1.1.07.12.09.1.06.03.03.06.05.1.07.04.04.05.04.37.36q0 .03.04.05c.04.02.02.04.04.05l.1.16c.64.96.77 4.26.77 4.26a71 71 0 0 1-.67 7.72l-.12.6c-.35 1.77-.54 2.73-2.1 3.08l-.18.03c-2.36.44-1.62.3-11.52.67m-3.33-16.74h-.09A1.13 1.13 0 0 0 72.95 70v3.97a1.13 1.13 0 0 0 1.01 1.15h.09l13.37-.04a.93.93 0 0 0 .9-.95v-.27c0-2.01-1.75-5.01-3.1-5.01ZM55.29 70v3.97a1.4 1.4 0 0 1-.59 1.16h18.6a1.4 1.4 0 0 1-.6-1.16V70a1.4 1.4 0 0 1 .6-1.15H54.7a1.4 1.4 0 0 1 .6 1.15m-6.06-10.56h29.54a9 9 0 0 0-.71-.57l-.2-.03a65 65 0 0 0-7.18-.27h-1.06c-2.14 0-4.22.03-5.58.05h-.08c-1.36-.02-3.43-.05-5.58-.05h-1.06a65 65 0 0 0-7.17.27l-.21.03-.26.19zm-1.74 1.73h33.02l-.84-.87H48.33zm-1.57 1.73h36.16l-.77-.87H46.69zm-1.51 1.73h39.18l-.34-.4-.35-.4-.06-.07H45.16l-.06.07-.35.4Zm-3.83 10.45 13.37.05h.09a1.13 1.13 0 0 0 1.01-1.16V70a1.13 1.13 0 0 0-1.01-1.15H42.77c-1.33 0-3.1 3-3.1 5v.28a.93.93 0 0 0 .9.95m45.77 6.37a.2.2 0 0 0 .14-.08l.05-.09a9 9 0 0 0 .64-3.33v-.18a.16.16 0 0 0-.15-.16H40.97a.16.16 0 0 0-.16.16v.18a9 9 0 0 0 .65 3.33l.05.09a.2.2 0 0 0 .14.08Zm-4 6.09a1.1 1.1 0 0 1-1.12 1.12h-3.05a1.12 1.12 0 0 1 0-2.24h3.05a1.1 1.1 0 0 1 1.12 1.12m-1.93 0a.72.72 0 1 0-.72.72.7.7 0 0 0 .72-.72m6.24-7.8H41.34q.05.31.12.58h45.08zm-45.11.9a3 3 0 0 0 .2.48h44.5a3 3 0 0 0 .2-.48Zm49.32 10.85h-7.08l5.6 17.22 8.15-4.7Zm-5.61-.98h3.87a2 2 0 0 0 2.01-2.02v-3.62a3.3 3.3 0 0 1-2.05 1.07h-.02a29 29 0 0 1-5.82.48v2.07a2 2 0 0 0 2 2.02m-34.32-2.97a1.1 1.1 0 0 1-1.12 1.12h-3.05a1.12 1.12 0 0 1 0-2.24h3.05a1.1 1.1 0 0 1 1.12 1.12m-1.92 0a.72.72 0 1 0-.72.72.7.7 0 0 0 .72-.72m37.78-8.69H41.2l.08.58h45.44zm-12.6-9.09h10.87c1.05 0 2.24 2.9 2.38 4.05a.4.4 0 0 1-.08.28.3.3 0 0 1-.26.12H74.2a.4.4 0 0 1-.38-.4v-3.66a.4.4 0 0 1 .38-.39m10.5 4.21h2.41a.1.1 0 0 0 .1-.13c-.15-1.25-1.35-3.84-2.14-3.84h-.36Zm-1.5 0h1.27V70H83.2Zm-1.5 0h1.26V70H81.7Zm-1.5 0h1.26V70H80.2Zm-1.5 0h1.26V70H78.7Zm-1.5 0h1.26V70h-1.27Zm-1.51 0h1.26V70H75.7Zm-1.64-.15a.15.15 0 0 0 .14.15h1.26V70h-1.26a.15.15 0 0 0-.14.15Zm-14.47.32h8.84a.3.3 0 0 0 .29-.3v-3.72a.3.3 0 0 0-.3-.28h-8.83a.3.3 0 0 0-.29.28v3.73a.3.3 0 0 0 .3.29m27.28 3.8zH41.14v.01l.03.6h45.66zm-33.05-3.73H40.89a.3.3 0 0 1-.26-.12.4.4 0 0 1-.08-.28c.14-1.14 1.33-4.05 2.38-4.05H53.8a.4.4 0 0 1 .38.4v3.66a.4.4 0 0 1-.38.39M43.29 70h-.36c-.8 0-2 2.59-2.15 3.84a.1.1 0 0 0 .1.13h2.41Zm1.5 0h-1.26v3.97h1.27Zm1.5 0h-1.25v3.97h1.26Zm1.51 0h-1.26v3.97h1.26Zm1.5 0h-1.26v3.97h1.26Zm1.5 0h-1.26v3.97h1.27Zm1.51 0h-1.26v3.97h1.26Zm1.64.15a.15.15 0 0 0-.14-.15h-1.26v3.97h1.26a.15.15 0 0 0 .14-.15Z" opacity=".85" style="fill:#fff"/><linearGradient id="b" x1="-237.93" x2="-237.93" y1="453.68" y2="454.68" gradientTransform="matrix(93.909 0 0 -52.3356 22408.1 23801.67)" gradientUnits="userSpaceOnUse"><stop offset="0" style="stop-color:#ff80f2"/><stop offset="1" style="stop-color:#ff80f2;stop-opacity:0"/></linearGradient><path d="M17.55 32.1 61.5 6.65a5 5 0 0 1 5 0l43.96 25.46a1 1 0 0 1-.03 1.74L66.38 57.71a5 5 0 0 1-4.76 0L17.57 33.85a1 1 0 0 1-.03-1.74" style="fill-rule:evenodd;clip-rule:evenodd;fill:url(#b);fill-opacity:.5"/><linearGradient id="c" x1="-236.03" x2="-235.03" y1="456.49" y2="456.49" gradientTransform="matrix(48.5 0 0 -82.5455 11460.5 37760.34)" gradientUnits="userSpaceOnUse"><stop offset="0" style="stop-color:#ff80f2;stop-opacity:0"/><stop offset="1" style="stop-color:#ff80f2"/></linearGradient><path d="m14.48 38 45.45 24.65a3 3 0 0 1 1.57 2.64v53.93a1.2 1.2 0 0 1-1.8 1.04L15.5 94.85a5 5 0 0 1-2.5-4.33V38.88a1 1 0 0 1 1.48-.88" style="fill-rule:evenodd;clip-rule:evenodd;fill:url(#c);fill-opacity:.25"/><path d="M113.52 38 68.07 62.65a3 3 0 0 0-1.57 2.64v53.93a1.2 1.2 0 0 0 1.8 1.04l44.2-25.42a5 5 0 0 0 2.5-4.33V38.88a1 1 0 0 0-1.48-.88" style="fill-rule:evenodd;clip-rule:evenodd;fill:#620058;fill-opacity:.1"/><path d="M110.82 33.47a1 1 0 0 1-.39.38L66.38 57.71a5 5 0 0 1-4.76 0l-23.8-12.9 23.4 9.11a7 7 0 0 0 5.2-.04l.28-.13 44.2-20.46zM33.03 48.06l26.9 14.59a3 3 0 0 1 1.57 2.64v43.32L58.6 66a3 3 0 0 0-1.2-2.21l-.16-.11z" style="fill-rule:evenodd;clip-rule:evenodd;fill:#fff;fill-opacity:.5"/></svg>